<svg xmlns="http://www.w3.org/2000/svg" viewBox="0 110 410 380">
  <style>
    .blue-dark{fill:#2C2A6B}
    .blue-light{fill:#1FC0DB}
    .orange{fill:#F46C0F}
  </style>
  <path class="blue-light" d="M16.68,259.2c27.65,21.27,65.53,39.68,105.39,51.76l21.89-38.24c-35.43-2.19-68.74-11.84-98.45-27.39L16.68,259.2z"/>
  <path class="blue-light" d="M144.91,339.66c32.42,5.73,69.96,3.32,103.68-3.97l-10.42,60.14c-36.5-1.19-74.38-8.46-108.07-20.82L144.91,339.66z"/>
  <path class="blue-dark" d="M276.59,393.51c33.54-9.02,71.24-25.91,102.94-53.2l2.14-90.52c-28.67,33.45-66.22,60.12-97.99,75.92L276.59,393.51z"/>
  <path class="blue-light" d="M267.93,474.96c33.68-0.58,75.32-5.69,108.97-23.44l1.85-78.2c-31.06,22.82-72.57,39.23-104.75,45.64L267.93,474.96z"/>
  <path class="orange" d="M286.43,291.97c34.28-18.1,66.06-46.32,96.26-85.26l2.16-91.16c-18.28,47.01-50.62,86.84-91.71,114.58L286.43,291.97z"/>
  <path class="blue-dark" d="M153.93,318.26c31.81,3.23,66.92-0.81,99.79-12.88l9.88-58.18c-27.75,13.57-58.39,22.05-90.7,24.25L153.93,318.26z"/>
</svg>
