<svg xmlns="http://www.w3.org/2000/svg" xmlns:xlink="http://www.w3.org/1999/xlink" version="1.1" id="Layer_1" x="0px" y="0px" viewBox="0 0 2347.64 590.51" style="enable-background:new 0 0 2347.64 590.51;" xml:space="preserve">
<style type="text/css">
	.st0{fill:#2C2A6B;}
	.st1{fill:#1FC0DB;}
	.st2{fill:#F46C0F;}
</style>
<g>
	<g>
		<g>
			<g>
				<g>
					<path class="st0" d="M629.65,325.47V196.06h35.56V408.8h-1.14L536.66,275.41V405.1H501.1V192.36h1.14L629.65,325.47z"/>
					<path class="st0" d="M832.75,332.01v11.94H731.51c1.43,22.47,15.36,34.98,39.25,34.98c17.07,0,29.58-7.11,36.4-16.21       l22.75,17.92c-13.93,17.35-33.27,27.3-59.72,27.3c-44.37,0-73.38-31.28-73.38-74.23c0-43.23,28.73-74.8,70.25-74.8       C810.86,258.91,832.75,291.91,832.75,332.01z M731.51,319.49h67.4c-0.85-19.63-12.23-33.28-32.42-33.28       C746.3,286.22,732.64,299.58,731.51,319.49z"/>
					<path class="st0" d="M985.8,409.89h-1.14l-39.54-76.55l-39.82,76.55h-1.14l-67.7-148.88h36.69l34.14,83.7l37.25-79.07h1.14       l36.98,79.07l36.11-83.7h36.4L985.8,409.89z"/>
					<path class="st0" d="M1307.8,405.1h-35.56v-90.73h-95.27v90.73h-35.56V196.06h35.56v85.89h95.27v-85.89h35.56V405.1z"/>
					<path class="st0" d="M1488.44,333.71c0,42.95-31.57,74.23-74.8,74.23c-42.95,0-74.24-31.28-74.24-74.23       c0-43.23,31.29-74.8,74.24-74.8C1456.87,258.91,1488.44,290.48,1488.44,333.71z M1374.11,333.71c0,25.6,16.5,44.08,39.54,44.08       c23.32,0,40.1-18.49,40.1-44.08c0-25.88-16.78-44.65-40.1-44.65C1390.6,289.06,1374.11,307.83,1374.11,333.71z"/>
					<path class="st0" d="M1599.19,293.04h-3.13c-17.35,0-28.44,9.1-37.26,21.61v90.44h-34.41V261.76h30.72l1.99,19.06       c7.11-11.38,21.33-21.9,42.1-21.9V293.04z"/>
					<path class="st0" d="M1667.74,405.1h-34.41V261.76h34.41V405.1z"/>
					<path class="st0" d="M1823.33,262.89l-66.55,113.2h66.27v29.01h-118.89v-1.14l66.56-113.2h-62.29v-29.01h114.9V262.89z"/>
					<path class="st0" d="M1988.59,333.71c0,42.95-31.57,74.23-74.8,74.23c-42.95,0-74.24-31.28-74.24-74.23       c0-43.23,31.29-74.8,74.24-74.8C1957.02,258.91,1988.59,290.48,1988.59,333.71z M1874.26,333.71c0,25.6,16.5,44.08,39.54,44.08       c23.32,0,40.1-18.49,40.1-44.08c0-25.88-16.78-44.65-40.1-44.65C1890.76,289.06,1874.26,307.83,1874.26,333.71z"/>
					<path class="st0" d="M2146.47,321.2v83.9h-34.13v-81.91c0-19.06-11.09-31.85-28.73-31.85c-15.07,0-25.31,9.1-32.42,19.91v93.86       h-34.41V261.76h31l1.43,16.5c7.68-10.24,22.47-19.34,43.23-19.34C2127.13,258.91,2146.47,283.66,2146.47,321.2z"/>
					<path class="st0" d="M2284.44,273.42l-13.37,25.31c-9.1-6.25-21.89-11.94-37.82-11.94c-13.37,0-21.9,4.26-21.9,14.22       c0,9.39,6.82,12.51,27.59,17.35c32.42,7.96,47.5,21.62,47.5,43.23c0,27.87-23.04,46.36-60.01,46.36       c-21.61,0-41.52-5.97-54.61-16.5l14.22-25.88c10.52,8.82,24.18,14.5,40.67,14.5c15.36,0,25.03-4.83,25.03-15.07       c0-9.96-6.82-14.22-26.73-19.06c-33.56-7.68-47.78-19.63-47.78-41.81c0-27.87,21.61-45.22,56.88-45.22       C2253.72,258.91,2272.49,264.89,2284.44,273.42z"/>
				</g>
			</g>
			<path class="st0" d="M1667.74,239.03h-34.41v-29.84h34.41V239.03z"/>
		</g>
		<g>
			<path class="st0" d="M2330.96,233.89c0,12.29-9.65,21.94-22.2,21.94c-12.42,0-22.33-9.65-22.33-21.94     c0-12.03,9.91-21.67,22.33-21.67C2321.31,212.21,2330.96,221.86,2330.96,233.89z M2291.98,233.89c0,9.65,7.14,17.31,16.92,17.31     c9.52,0,16.52-7.66,16.52-17.18c0-9.65-7-17.44-16.65-17.44S2291.98,224.37,2291.98,233.89z M2305.32,245.25h-5.02v-21.67     c1.98-0.4,4.76-0.66,8.32-0.66c4.1,0,5.95,0.66,7.53,1.59c1.19,0.92,2.11,2.64,2.11,4.76c0,2.38-1.85,4.23-4.49,5.02v0.26     c2.12,0.79,3.3,2.38,3.97,5.29c0.66,3.3,1.06,4.62,1.59,5.42h-5.42c-0.66-0.79-1.06-2.78-1.72-5.29     c-0.4-2.38-1.72-3.44-4.49-3.44h-2.38V245.25z M2305.46,232.96h2.38c2.77,0,5.02-0.92,5.02-3.17c0-1.98-1.45-3.3-4.62-3.3     c-1.32,0-2.25,0.13-2.77,0.26V232.96z"/>
		</g>
		<g>
			<path class="st1" d="M16.68,259.2c27.65,21.27,65.53,39.68,105.39,51.76l21.89-38.24c-35.43-2.19-68.74-11.84-98.45-27.39     L16.68,259.2z"/>
			<path class="st1" d="M144.91,339.66c32.42,5.73,69.96,3.32,103.68-3.97l-10.42,60.14c-36.5-1.19-74.38-8.46-108.07-20.82     L144.91,339.66z"/>
			<path class="st0" d="M276.59,393.51c33.54-9.02,71.24-25.91,102.94-53.2l2.14-90.52c-28.67,33.45-66.22,60.12-97.99,75.92     L276.59,393.51z"/>
			<path class="st1" d="M267.93,474.96c33.68-0.58,75.32-5.69,108.97-23.44l1.85-78.2c-31.06,22.82-72.57,39.23-104.75,45.64     L267.93,474.96z"/>
			<path class="st2" d="M286.43,291.97c34.28-18.1,66.06-46.32,96.26-85.26l2.16-91.16c-18.28,47.01-50.62,86.84-91.71,114.58     L286.43,291.97z"/>
			<path class="st0" d="M153.93,318.26c31.81,3.23,66.92-0.81,99.79-12.88l9.88-58.18c-27.75,13.57-58.39,22.05-90.7,24.25     L153.93,318.26z"/>
		</g>
	</g>
</g>
</svg>